<?xml version="1.0" encoding="utf-8"?>
<!-- Generator: Adobe Illustrator 17.1.0, SVG Export Plug-In . SVG Version: 6.00 Build 0)  -->
<!DOCTYPE svg PUBLIC "-//W3C//DTD SVG 1.1//EN" "http://www.w3.org/Graphics/SVG/1.1/DTD/svg11.dtd">
<svg version="1.1" id="Layer_1" xmlns:sketch="http://www.bohemiancoding.com/sketch/ns"
	 xmlns="http://www.w3.org/2000/svg" xmlns:xlink="http://www.w3.org/1999/xlink" x="0px" y="0px" viewBox="0 0 18 18"
	 enable-background="new 0 0 18 18" xml:space="preserve">
<title></title>
<desc></desc>
<g id="Page-1">
	<g id="Icons-AV" transform="translate(-211.000000, -170.000000)">
		<g id="volume-up" transform="translate(211.000000, 170.000000)">
			<path id="Shape" fill="#FFFFFF" d="M0,6v6h4l5,5V1L4,6H0L0,6z M13.5,9c0-1.8-1-3.3-2.5-4v8C12.5,12.3,13.5,10.8,13.5,9L13.5,9z
				 M11,0.2v2.1c2.9,0.9,5,3.5,5,6.7s-2.1,5.8-5,6.7v2.1c4-0.9,7-4.5,7-8.8S15,1.1,11,0.2L11,0.2z"/>
		</g>
	</g>
</g>
</svg>
