<?xml version="1.0" encoding="utf-8"?>
<!-- Generator: Adobe Illustrator 17.1.0, SVG Export Plug-In . SVG Version: 6.00 Build 0)  -->
<!DOCTYPE svg PUBLIC "-//W3C//DTD SVG 1.1//EN" "http://www.w3.org/Graphics/SVG/1.1/DTD/svg11.dtd">
<svg version="1.1" id="Layer_1" xmlns="http://www.w3.org/2000/svg" xmlns:xlink="http://www.w3.org/1999/xlink" x="0px" y="0px"
	 viewBox="-48.5 579 612 295.5" enable-background="new -48.5 579 612 295.5" xml:space="preserve">
<g id="Слой_x0020_1">
	<g id="_692087336">
		<path fill="#D5A353" d="M501.6,637.7c4-0.7,12.5-1,12.5,4c0,2.7-4,9-5.2,11.2c-4.2,7.5-7,14.5-17,16.2c-4.2,0.7-12.7,1-12.7-3.7
			c0-3,4-9,5.2-11.5C489.1,645.5,490.6,640,501.6,637.7z M563.5,682.5v-14.2h-38.7V668l8.7-15.5c7-12.2,16.2-25.5-4.2-28
			c-7.5-1-15.7-0.7-23.5-0.7c-18,0.2-27,2.5-35.5,12.7c-4,4.7-15.2,24-16.7,31.7h-55c1.5-3.7,15.5-27.5,19.2-34.2
			c6.2-11.2-11.5-9.2-19.5-9c-1.2,3-4.2,7.5-6,11c-2,3.7-4.2,7.2-6,11c-1.7,3.2-4.2,7.5-6.2,10.7c-1,2-2,3.5-3.2,5.5
			c-0.7,1.5-2,3.7-3,5.2h-53c0.5-1.7,10.5-19,12.2-22l24.5-43.5c2.5-4.5,4-8.7-2.2-10.5c-2-0.5-13.5-0.5-15.7-0.2
			c-1.5,0.5-16.5,29-19.2,32.7c-4.2,0-9-1-13.7-1c-35.5-0.5-37.2,6.5-53.7,34.5c-2,3.7-4,9.7-4.5,10h-54c0.7-2.2,16.5-29.2,19-34
			c6.2-12-9.7-9.5-19.2-9.5l-4,6.7c-6.7-5.7-11-8-22-7.7c-18.7,0.2-27.7,10-35.7,24.2c-3.7,6.5-7.5,12-10,20.2H55.4
			c-1.2-0.2-8.7-13.5-9.5-14.7c-1.5-2.5-8.5-13.7-9-15.5c25,0,32.7,2.2,47-18.7c7-10.2,24-37.2-1.5-39.7c-9.5-1-20.2-0.5-30-0.5
			h-75.9c-3.5,0-11.7-1-14.2,0.7c-0.2,2.2-6.7,11-7,13.5h42c-0.7,2.2-21,37.5-22.7,40.7c-4,7-7.7,13.5-11.5,20.2
			c-2,3.7-3.7,6.7-5.7,10.2c-1,1.7-2,3.2-2.7,5.2c-0.7,1.5-1.5,4.2-2.2,5.2v2.2c1,2,0.7,2.7,3,4c1.5,0.7,3.5,1,5.5,1.2
			c3.7,0.2,9.7,0.2,13.5,0c1.2-1.5,2.2-4,3.2-5.5c3.2-5.7,21.2-38.5,22.2-38.7h13.5c1.2,0.7,16.2,28.7,18.2,32.5
			c8.2,15.2,19,11.7,39,11.7c16.7,0,33.7,0,50.7,0l25.2-0.2c5.7-0.5,16-2.7,19.5-5.7c0.7,0.7,0,0,0.5,0.7l1,2.2
			c2,3.2,6.7,2.7,10.2,2.7H264c7.2,0,23.5-1.5,28.5-6l0.2,0.2c1.2,2.2,0.7,4,4.5,5.2c2.7,0.7,6,0.5,9,0.5h152.1
			c5.7,0,4.7-0.5,8.7-0.2c3,0.2,6.2,0.2,9.5,0.2 M184.6,641.2c-0.5,1.5-2,4-3,5.5c-2.2,4.2-7.2,13.2-9.5,16
			c-7.2,8.7-23.7,8.2-23.7,2.2c0-3,9.7-19.7,12-22C166.6,636.5,179.3,635.2,184.6,641.2z M312.5,638.5c-0.5,1.7-10.7,19.7-12.5,22.2
			c-7,11.2-22.5,9.2-24.5,6.7c-2.5-3,2.2-9.7,3.7-12.5c4.5-8.2,7-15.2,17.2-17.2C300,637.2,309.7,637.2,312.5,638.5z M23.4,593.8
			c2.5-0.5,28.7-0.2,33.7-0.2c6.5,0,10.2,0,8.5,7.5c-1,4-3.2,8-5,11.5c-6.7,12-8.2,12.5-21.2,12.5c-5.2,0-30.5,0.2-33.5,0
			L23.4,593.8z M427.1,617.5c1.7-3.7,7.7-10,2.7-13.7c-2.7-2.2-14.5-1.7-18.7-1.5c-2.5,3.2-7.2,10.5-3,13.7
			C411.6,618.3,422.1,617.5,427.1,617.5z"/>
		<path d="M7.5,718.2l22.5,22.5l1,1v1.2v104.7v1.2l-0.7,1L7.7,873.6l-1,1H5.2h-28.5h-1.2l-1-1l-22.2-23.7l-0.7-1v-1.2V742.9v-1.2
			l1-1l22.5-22.5l1-1h1.2h28h1.2L7.5,718.2z M-14,850.6h10.2l10.2-11v-87.9l-10-10h-10.7l-10,10v87.9L-14,850.6z M46.9,740.4v-18
			v-3.2h3.2h28.7h3.2v3.2v128.1h25.2v-12.7v-3.2h3.2h18h3.2v3.2v33v3.2h-3.2H61.2h-3.5v-3.2V746.4v-1.7l1.5-1l0.2-0.2h-9.2h-3.2
			V740.4z M176.3,744.2v105.7h17.2l9.7-9.7v-86.2l-9.7-9.7H176.3z M153.6,744.2L153.6,744.2h-9h-3.2v-3.2v-18v-3.2h3.2h58h1.2l1,1
			l22.2,22.2l1,1v1.2v103.4v1.2l-1,1l-22.2,22.5l-1,1h-1.2h-47.5h-3.2v-3.2V746.9v-1.7L153.6,744.2z M279.2,744.2v39.2h14.2
			l8.7-10.5v-19.2l-9.7-9.7h-13.2V744.2z M295.2,808.1H279v41.5h17.2l9.7-9.7v-21.2L295.2,808.1z M256.3,744.2h-9H244v-3.2v-18.5
			v-3.2h3.2h54h1.2l1,1l22.2,22.5l1,1v1.2v36.2v1l-0.7,1l-9,10.7l12.7,12.7l1,1v1.2v39.7v1.2l-1,1l-22.2,22.2l-1,1h-1.2h-47.5h-3.2
			v-3.2V747.2v-1.7L256.3,744.2L256.3,744.2z M408.1,718.2l22.5,22.5l1,1v1.2v104.7v1.2l-0.7,1l-22.5,23.7l-1,1h-1.2h-28.7h-1.2
			l-1-1l-22.2-23.7l-0.7-1v-1.2V742.9v-1.2l1-1l22.5-22.5l1-1h1.2h28.2h1.2L408.1,718.2z M386.4,850.6h10.2l10.2-11v-87.9l-10-10
			h-10.7l-10,10v87.9L386.4,850.6z M486.1,753.9l9.2,31.2l9.7-31.7l0,0l11.2-32l0.7-2.2h2.2h19h4.5l-1.5,4.2l-34,92.9v54.5v3.2H504
			h-18h-3.2v-3.2v-54.5l-25.5-70.9l-1-2.5l1-0.5h-10.5h-3.2v-3.2v-16.7v-3.2h3.2h24.5h2.2l0.7,2L486.1,753.9L486.1,753.9z"/>
	</g>
</g>
</svg>
