<?xml version="1.0" encoding="UTF-8"?>
<!DOCTYPE svg PUBLIC "-//W3C//DTD SVG 1.1//EN" "http://www.w3.org/Graphics/SVG/1.1/DTD/svg11.dtd">
<!-- Creator: CorelDRAW X7 -->
<svg xmlns="http://www.w3.org/2000/svg" xml:space="preserve" width="280px" height="134px" version="1.1" style="shape-rendering:geometricPrecision; text-rendering:geometricPrecision; image-rendering:optimizeQuality; fill-rule:evenodd; clip-rule:evenodd"
viewBox="0 0 280 134"
 xmlns:xlink="http://www.w3.org/1999/xlink">
 <defs>
  <style type="text/css">
   <![CDATA[
    .fil0 {fill:#D5A353}
    .fil1 {fill:black;fill-rule:nonzero}
   ]]>
  </style>
 </defs>
 <g id="Слой_x0020_1">
  <metadata id="CorelCorpID_0Corel-Layer"/>
  <path class="fil0" d="M167 48l113 0 0 -7 -10 0 7 -11c3,-5 1,-9 -7,-9l-11 0c-9,0 -13,4 -17,11 -1,3 -3,5 -4,9l0 0 -24 0 8 -14c2,-3 0,-6 -3,-6l-6 0 -12 20 -23 0 16 -29c2,-3 1,-6 -2,-6l-7 0 -8 15c-4,0 -7,0 -12,0 -9,0 -13,4 -17,11 -1,3 -3,5 -4,9l0 0 -24 0 8 -14c2,-3 1,-6 -2,-6l-7 0 -2 3 0 0c-3,-2 -5,-3 -10,-3 -9,0 -13,4 -16,11 -2,3 -4,5 -5,9l0 0 -30 0 -8 -14 8 0 0 0c4,0 10,-3 12,-8l4 -6c4,-7 2,-13 -5,-13l-43 0 -4 7 10 0 -20 34 -10 0 0 7c6,0 12,0 18,0l12 -21 6 0 9 16c1,3 4,5 7,5 15,0 29,0 44,0 3,0 8,-2 10,-4 0,2 1,4 4,4 14,0 29,0 44,0 3,0 8,-2 10,-4 0,2 1,4 3,4zm53 -30l6 0 1 -1c3,-4 3,-6 -1,-6l-6 0 -1 1c-3,3 -2,6 1,6zm-47 9l-6 12c-4,3 -11,3 -11,1 0,-2 4,-9 5,-11 1,-1 3,-1 4,-2 1,0 6,-1 8,0zm-58 2l-6 10c-3,3 -11,3 -11,1 0,-2 4,-9 6,-11 2,-3 8,-3 11,0l0 0zm-73 -22l6 0 9 0c3,0 4,2 3,5l-4 6c-1,2 -2,3 -4,3l-12 0 -6 0 8 -14zm218 20l3 0c3,0 3,2 2,4l-4 7c-1,2 -4,4 -6,4l-3 0c-2,0 -3,-2 -2,-4l4 -7c1,-2 4,-4 6,-4z"/>
  <path class="fil1" d="M32 61l11 11 0 0 0 1 0 48 0 0 0 1 -11 11 0 0 -1 0 -13 0 0 0 -1 0 -10 -11 0 -1 0 0 0 -48 0 -1 0 0 10 -11 1 0 0 0 13 0 1 0 0 0zm-10 61l5 0 5 -5 0 -40 -5 -5 -5 0 -4 5 0 40 4 5zm28 -50l0 -9 0 -1 2 0 13 0 2 0 0 1 0 59 11 0 0 -6 0 -1 1 0 9 0 1 0 0 1 0 15 0 2 -1 0 -31 0 -2 0 0 -2 0 -57 0 -1 1 0 0 0 -4 0 -2 0 0 -1zm60 1l0 49 8 0 4 -5 0 -39 -4 -5 -8 0zm-11 0l0 0 -4 0 -1 0 0 -1 0 -8 0 -2 1 0 27 0 0 0 1 1 10 10 0 0 0 1 0 47 0 1 0 0 -10 10 -1 1 0 0 -22 0 -1 0 0 -2 0 -56 0 -1 0 -1zm58 0l0 18 6 0 4 -4 0 -9 -4 -5 -6 0zm7 30l-7 0 0 19 8 0 4 -5 0 -10 -5 -4zm-18 -30l-4 0 -1 0 0 -1 0 -9 0 -1 1 0 25 0 1 0 0 0 10 11 1 0 0 1 0 16 0 1 -1 0 -4 5 6 6 0 0 0 1 0 18 0 1 0 0 -10 10 -1 1 0 0 -22 0 -1 0 0 -2 0 -56 0 -1 0 -1 0 0zm70 -12l10 11 1 0 0 1 0 48 0 0 -1 1 -10 11 0 0 -1 0 -13 0 -1 0 0 0 -10 -11 -1 -1 0 0 0 -48 0 -1 1 0 10 -11 0 0 1 0 13 0 1 0 0 0zm-10 61l5 0 4 -5 0 -40 -4 -5 -5 0 -5 5 0 40 5 5zm46 -44l4 14 4 -14 0 -1 5 -14 1 -1 1 0 9 0 2 0 -1 2 -16 42 0 25 0 2 -1 0 -8 0 -2 0 0 -2 0 -25 -12 -32 0 -1 0 -1 -4 0 -2 0 0 -1 0 -8 0 -1 2 0 11 0 1 0 0 1 6 15 0 0z"/>
 </g>
</svg>
